<?xml version="1.0" encoding="utf-8"?>
<!-- Generator: Adobe Illustrator 25.2.1, SVG Export Plug-In . SVG Version: 6.00 Build 0)  -->
<svg version="1.1" id="Layer_1" xmlns="http://www.w3.org/2000/svg" xmlns:xlink="http://www.w3.org/1999/xlink" x="0px" y="0px"
	 viewBox="0 0 595.28 841.89" style="enable-background:new 0 0 595.28 841.89;" xml:space="preserve">
<style type="text/css">
	.st0{fill:#5BC2AE;}
	.st1{fill:#C9C751;}
	.st2{fill:#C95367;stroke:#C95367;stroke-miterlimit:10;}
</style>
<path class="st0" d="M299.38,179.67c-1.09-0.08-2.19-0.07-3.28,0.03l0.04,0.01c-17.13,0.66-33.92-4.55-49.8-10.86
	c-15.88-6.31-31.35-13.82-47.91-18.15c-34.42-9.01-72.62-3.2-102.62,15.6c-6.32,3.96-12.43,9.83-15.76,16.4
	c6.58-21.54,23.77-38.33,41.76-52.32c8.78-6.83,17.96-13.26,28.06-18.03c20.06-9.47,42.7-11.91,64.3-17.23
	c31.66-7.79,62.44-22.63,83.47-47.05c21.03,24.42,51.81,39.26,83.47,47.05c21.6,5.32,44.24,7.76,64.3,17.23
	c10.1,4.77,19.28,11.2,28.06,18.03c17.99,13.99,35.18,30.78,41.76,52.32c-3.34-6.57-9.44-12.45-15.76-16.4
	c-30.01-18.8-68.2-24.61-102.62-15.6c-16.56,4.33-32.03,11.84-47.91,18.15c-15.88,6.31-32.67,11.52-49.8,10.86"/>
<g>
	<g>
		<path class="st0" d="M75.77,254.36c-8.39-17-8.69-37.78-0.78-55.01s23.86-30.56,42.22-35.28c7.57-1.95,15.42-2.49,23.24-2.79
			c8.81-0.34,17.67-0.38,26.4,0.84c21.49,3,41.09,13.41,61.08,21.83c19.99,8.42,42.08,15.04,63.18,10c3.2,4.9,0.19,11.94-2.69,17.04
			c-2.32,4.1-5,8.05-8.43,11.29c-9.37,8.83-23.34,11.26-36.11,9.64c-12.77-1.62-24.77-6.79-36.77-11.46
			c-17.88-6.97-36.13-12.95-54.67-17.92c-7.75-2.08-15.7-3.99-23.7-3.41c-13.47,0.97-25.67,9.04-34.34,19.4
			S80.86,241.85,75.77,254.36z"/>
	</g>
</g>
<g>
	<g>
		<path class="st0" d="M518.87,254.36c8.39-17,8.69-37.78,0.78-55.01c-7.91-17.23-23.86-30.56-42.22-35.28
			c-7.57-1.95-15.42-2.49-23.24-2.79c-8.81-0.34-17.67-0.38-26.4,0.84c-21.49,3-41.09,13.41-61.08,21.83
			c-19.99,8.42-42.08,15.04-63.18,10c-3.2,4.9-0.19,11.94,2.69,17.04c2.32,4.1,5,8.05,8.43,11.29c9.37,8.83,23.34,11.26,36.11,9.64
			c12.77-1.62,24.77-6.79,36.77-11.46c17.88-6.97,36.13-12.95,54.67-17.92c7.75-2.08,15.7-3.99,23.7-3.41
			c13.47,0.97,25.67,9.04,34.34,19.4S513.79,241.85,518.87,254.36z"/>
	</g>
</g>
<path class="st1" d="M126.66,245.75c1.1,2.01,2.29,3.98,3.75,5.69c1.76,2.05,3.88,3.69,6.05,5.18c5.25,3.59,10.94,6.4,16.86,8.34
	c12.85,4.21,26.48,4.24,39.89,4.49c13.63,0.26,27.27,0.78,40.88,1.56c6.11,0.35,12.38,0.8,17.96,3.55c0.15-1.92-1.45-3.4-2.88-4.51
	c-10.15-7.85-20.34-15.73-31.36-22.03s-22.95-11.01-35.33-12.09c-4.33-0.38-8.67-0.32-13.01-0.44c-7.82-0.22-15.62-1.03-23.33-2.43
	c-6.38-1.16-12.86-2.82-18.54-6.34c-1.38-0.85-2.7-1.82-3.93-2.9c-0.98-0.86-2.1-2.19-3.19-0.69c-0.96,1.32-0.35,3.61-0.13,5.1
	c0.29,1.9,0.72,3.76,1.25,5.59C122.82,238.02,124.6,241.99,126.66,245.75z"/>
<g>
	<g>
		<path class="st0" d="M129.19,300.45c6.54-5.08,14.14-8.63,22.11-10.34c16.9-3.62,34.25,1.06,51.33,3.63
			c16.25,2.44,32.76,2.96,49.11,1.55c4.24-0.37,8.99-1.16,11.5-4.77c2.26,20.18,0.3,40.87-5.71,60.18
			c-4.23-4.62-8.46-9.23-12.7-13.85c-2.71-2.96-5.43-5.93-8.43-8.57c-3.54-3.13-7.43-5.78-11.46-8.16
			c-19.43-11.47-42.29-16.45-64.46-14.02c-8.8,0.96-17.45,3.05-26.07,5.13c-2.35,0.57-4.7,1.13-7.05,1.7
			c-1.2,0.29-2.4,0.58-3.6,0.87c-0.92,0.22-2.11,0.76-3.06,0.55c-4.17-0.9,2.13-7.89,3.29-9.16c0.8-0.87,1.64-1.7,2.51-2.49
			c0.45-0.41,0.91-0.81,1.38-1.2C128.14,301.28,128.88,300.45,129.19,300.45z"/>
		<path class="st0" d="M201.34,322.69c4.76,1.4,9.48,3.04,13.93,5.31c5.63,2.88,10.76,6.74,15.85,10.57
			c7.5,5.65,15.12,11.42,20.79,19.11c0.55,0.74,1.1,1.56,1.18,2.5c0.06,0.74-0.17,1.47-0.41,2.17
			c-4.08,12.14-9.55,23.75-16.26,34.51c-4.71-13.34-10.16-26.78-19.44-37.09c-2.6-2.89-5.47-5.5-8.44-7.96
			c-22.61-18.71-51.5-28.73-80.19-27.82c-1.59,0.05-3.19,0.12-4.78,0.05c-1.15-0.05-3.16,0.03-4.11-0.76
			c-0.64-0.53-0.71-1.68-0.15-2.31c0.78-0.87,2.83-0.9,3.89-1.13c6.26-1.36,12.59-2.33,18.96-2.91c6.36-0.59,12.76-0.78,19.15-0.6
			c6.39,0.19,12.76,0.76,19.09,1.71c6.32,0.96,12.6,2.3,18.77,4.02C199.88,322.27,200.61,322.48,201.34,322.69z"/>
		<path class="st0" d="M139.75,358.49c10.67-0.55,21.16,3.71,29.84,9.95s15.8,14.36,22.73,22.49c3.85,4.51,7.68,9.08,10.72,14.18
			c5.59,9.37,8.26,20.14,10.86,30.73c3.11-8.78,10.61-15.09,16.63-22.2c0.93-1.1,1.86-2.27,2.3-3.64c1.13-3.54-1.15-7.17-3.33-10.19
			c-12.7-17.57-25.69-35.4-43.01-48.44c-5.63-4.24-11.68-7.92-18-11.04c-6.33-3.13-12.93-5.7-19.69-7.74
			c-6.76-2.04-13.67-3.55-20.65-4.57c-2.3-0.34-5.58-1.16-5.53,2.25c0.02,1.22,0.55,2.3,1.32,3.22c1.15,1.38,2.34,2.74,3.45,4.16
			c4.47,5.71,8.28,11.94,11.33,18.52C138.81,356.38,139.62,358.5,139.75,358.49z"/>
		<path class="st0" d="M152.25,405.61c0.15,0.65,0.32,1.31,0.71,1.85c0.55,0.77,1.48,1.16,2.34,1.54
			c11.36,4.99,20.87,13.68,27.95,23.87c7.08,10.19,11.86,21.84,15.26,33.77c-0.93-9.84,11.79-17.14,10.63-26.95
			c-0.28-2.39-1.39-4.59-2.51-6.72c-5.26-10.06-11.03-19.86-17.27-29.34c-3.42-5.19-7-10.31-11.44-14.66
			c-3.65-3.58-7.83-6.58-12.05-9.48c-3.61-2.48-7.26-4.89-10.95-7.25c-1.86-1.18-3.73-2.35-5.6-3.5c-0.94-0.57-1.88-1.15-2.83-1.71
			c-0.63-0.38-1.36-1.02-2.13-0.64c-1.61,0.79-0.74,3.28-0.44,4.51c0.53,2.23,1.07,4.45,1.6,6.68c1.05,4.4,2.11,8.8,3.16,13.19
			C149.88,395.72,151.07,400.66,152.25,405.61z"/>
		<path class="st0" d="M174.32,532.89c1.53,3.76,3.23,7.55,5.98,10.54c0.34-8.99,0.68-17.98,1.02-26.97
			c0.13-3.43,0.26-6.87,0.89-10.24c1.13-6.02,3.82-11.61,6.38-17.17c1.59-3.45,3.17-7.18,2.5-10.92c-0.3-1.69-1.05-3.26-1.78-4.8
			c-2.37-4.96-4.74-9.91-7.22-14.8c-2.5-4.91-5.12-9.77-7.96-14.49c-2.84-4.71-5.91-9.28-9.31-13.61c-1.64-2.09-3.31-4.42-5.28-6.21
			c-0.5-0.46-1.56-1.19-2.29-0.84c-0.88,0.42-0.43,2.25-0.41,3.02c0.15,5.82,0.35,11.64,0.64,17.46c0.29,5.82,0.67,11.64,1.17,17.45
			c0.5,5.77,1.12,11.53,1.9,17.26c0.78,5.74,1.72,11.46,2.85,17.14c1.13,5.64,2.45,11.24,4,16.78c1.56,5.57,3.34,11.07,5.39,16.47
			C173.27,530.27,173.79,531.58,174.32,532.89z"/>
	</g>
</g>
<g>
	<g>
		<path class="st0" d="M463.92,300.45c-6.53-5.08-14.11-8.63-22.06-10.34c-16.86-3.62-34.18,1.06-51.21,3.63
			c-16.21,2.44-32.68,2.96-49,1.55c-4.23-0.37-8.97-1.16-11.48-4.77c-2.26,20.18-0.3,40.87,5.7,60.18
			c4.22-4.62,8.45-9.23,12.67-13.85c2.71-2.96,5.42-5.93,8.41-8.57c3.53-3.13,7.41-5.78,11.44-8.16
			c19.39-11.47,42.19-16.45,64.31-14.02c8.78,0.96,17.41,3.05,26.01,5.13c2.34,0.57,4.69,1.13,7.03,1.7c1.2,0.29,2.4,0.58,3.59,0.87
			c0.92,0.22,2.1,0.76,3.05,0.55c4.16-0.9-2.13-7.89-3.28-9.16c-0.8-0.87-1.63-1.7-2.5-2.49c-0.45-0.41-0.91-0.81-1.38-1.2
			C464.96,301.28,464.22,300.45,463.92,300.45z"/>
		<path class="st0" d="M392.01,322.69c-4.75,1.4-9.46,3.04-13.91,5.31c-5.63,2.88-10.74,6.74-15.83,10.57
			c-7.49,5.65-15.1,11.42-20.76,19.11c-0.55,0.74-1.09,1.56-1.18,2.5c-0.06,0.74,0.17,1.47,0.4,2.17
			c4.07,12.14,9.54,23.75,16.24,34.51c4.7-13.34,10.15-26.78,19.41-37.09c2.6-2.89,5.47-5.5,8.43-7.96
			c22.58-18.71,51.43-28.73,80.08-27.82c1.59,0.05,3.18,0.12,4.77,0.05c1.15-0.05,3.16,0.03,4.1-0.76c0.64-0.53,0.71-1.68,0.15-2.31
			c-0.78-0.87-2.83-0.9-3.89-1.13c-6.25-1.36-12.57-2.33-18.93-2.91c-6.36-0.59-12.74-0.78-19.12-0.6
			c-6.38,0.19-12.75,0.76-19.06,1.71c-6.32,0.96-12.58,2.3-18.75,4.02C393.46,322.27,392.73,322.48,392.01,322.69z"/>
		<path class="st0" d="M453.67,358.49c-10.67-0.55-21.16,3.71-29.84,9.95s-15.8,14.36-22.73,22.49c-3.85,4.51-7.68,9.08-10.72,14.18
			c-5.59,9.37-8.26,20.14-10.86,30.73c-3.11-8.78-10.61-15.09-16.63-22.2c-0.93-1.1-1.86-2.27-2.3-3.64
			c-1.13-3.54,1.15-7.17,3.33-10.19c12.7-17.57,25.69-35.4,43.01-48.44c5.63-4.24,11.68-7.92,18-11.04
			c6.33-3.13,12.93-5.7,19.69-7.74c6.76-2.04,13.67-3.55,20.65-4.57c2.3-0.34,5.58-1.16,5.53,2.25c-0.02,1.22-0.55,2.3-1.32,3.22
			c-1.15,1.38-2.34,2.74-3.45,4.16c-4.47,5.71-8.28,11.94-11.33,18.52C454.61,356.38,453.79,358.5,453.67,358.49z"/>
		<path class="st0" d="M441.16,405.61c-0.15,0.65-0.32,1.31-0.71,1.85c-0.55,0.77-1.48,1.16-2.34,1.54
			c-11.36,4.99-20.87,13.68-27.95,23.87c-7.08,10.19-11.86,21.84-15.26,33.77c0.93-9.84-11.79-17.14-10.63-26.95
			c0.28-2.39,1.39-4.59,2.51-6.72c5.26-10.06,11.03-19.86,17.27-29.34c3.42-5.19,7-10.31,11.44-14.66
			c3.65-3.58,7.83-6.58,12.05-9.48c3.61-2.48,7.26-4.89,10.95-7.25c1.86-1.18,3.73-2.35,5.6-3.5c0.94-0.57,1.88-1.15,2.83-1.71
			c0.63-0.38,1.36-1.02,2.13-0.64c1.61,0.79,0.74,3.28,0.44,4.51c-0.53,2.23-1.07,4.45-1.6,6.68c-1.05,4.4-2.11,8.8-3.16,13.19
			C443.54,395.72,442.35,400.66,441.16,405.61z"/>
		<path class="st0" d="M419.1,532.89c-1.53,3.76-3.23,7.55-5.98,10.54c-0.34-8.99-0.68-17.98-1.02-26.97
			c-0.13-3.43-0.26-6.87-0.89-10.24c-1.13-6.02-3.82-11.61-6.38-17.17c-1.59-3.45-3.17-7.18-2.5-10.92c0.3-1.69,1.05-3.26,1.78-4.8
			c2.37-4.96,4.74-9.91,7.22-14.8c2.5-4.91,5.12-9.77,7.96-14.49c2.84-4.71,5.91-9.28,9.31-13.61c1.64-2.09,3.31-4.42,5.28-6.21
			c0.5-0.46,1.56-1.19,2.29-0.84c0.88,0.42,0.43,2.25,0.41,3.02c-0.15,5.82-0.35,11.64-0.64,17.46c-0.29,5.82-0.67,11.64-1.17,17.45
			c-0.5,5.77-1.12,11.53-1.9,17.26c-0.78,5.74-1.72,11.46-2.85,17.14c-1.13,5.64-2.45,11.24-4,16.78
			c-1.56,5.57-3.34,11.07-5.39,16.47C420.14,530.27,419.63,531.59,419.1,532.89z"/>
	</g>
</g>
<path class="st1" d="M503.21,375c0.71,6.22,1.23,12.47,1.16,18.73c-0.3,27.87-12.23,54.72-29.36,76.7
	c-3.4,4.37-7.01,8.57-10.31,13.01c-6.89,9.29-12.37,19.53-17.83,29.72c-5.5-25.71-1.27-52.38,2.98-78.33
	c1.24-7.57,2.48-15.14,4.23-22.6c2.64-11.24,6.42-22.17,10.21-33.07c2.32-6.69,4.67-13.38,7.3-19.95
	c2.64-6.59,5.56-13.08,9.03-19.27c1.72-3.06,3.57-6.05,5.58-8.93c1-1.43,2.04-2.83,3.11-4.2c0.56-0.71,1.14-1.42,1.72-2.12
	c0.48-0.58,0.92-1.37,1.57-0.57c0.54,0.65,0.67,1.98,0.9,2.78c0.29,0.99,0.57,1.98,0.85,2.97c0.55,1.98,1.09,3.97,1.6,5.96
	c1.02,3.96,1.95,7.93,2.8,11.93c1.71,8.02,3.07,16.11,4.09,24.24C502.98,373.01,503.1,374.01,503.21,375z"/>
<path class="st1" d="M90.02,375c-0.71,6.22-1.23,12.47-1.16,18.73c0.3,27.87,12.23,54.72,29.36,76.7c3.4,4.37,7.01,8.57,10.31,13.01
	c6.89,9.29,12.37,19.53,17.83,29.72c5.5-25.71,1.27-52.38-2.98-78.33c-1.24-7.57-2.48-15.14-4.23-22.6
	c-2.64-11.24-6.42-22.17-10.21-33.07c-2.32-6.69-4.67-13.38-7.3-19.95c-2.64-6.59-5.56-13.08-9.03-19.27
	c-1.72-3.06-3.57-6.05-5.58-8.93c-1-1.43-2.04-2.83-3.11-4.2c-0.56-0.71-1.14-1.42-1.72-2.12c-0.48-0.58-0.92-1.37-1.57-0.57
	c-0.54,0.65-0.67,1.98-0.9,2.78c-0.29,0.99-0.57,1.98-0.85,2.97c-0.55,1.98-1.09,3.97-1.6,5.96c-1.02,3.96-1.95,7.93-2.8,11.93
	c-1.71,8.02-3.07,16.11-4.09,24.24C90.25,373.01,90.14,374.01,90.02,375z"/>
<g>
	<g>
		<g>
			<path class="st2" d="M296.96,294.67c-13.25,55.51-27.39,112.9-62.47,157.9c-7.05,9.04-14.89,17.5-21.09,27.15
				c-17.74,27.61-20.13,64.43-6.11,94.1c1.07-11.9,8.14-22.47,16.2-31.29c8.06-8.83,18.31-15.42,29.13-20.5
				c13.57-6.36,28.4-10.5,43.38-10.18"/>
			<path class="st2" d="M296.96,294.67c13.25,55.51,27.39,112.9,62.47,157.9c7.05,9.04,14.89,17.5,21.09,27.15
				c17.74,27.61,20.13,64.43,6.11,94.1c-1.07-11.9-8.14-22.47-16.2-31.29c-8.06-8.83-18.31-15.42-29.13-20.5
				c-13.57-6.36-28.4-10.5-43.38-10.18"/>
		</g>
		<path class="st2" d="M298.42,511.85c-0.92,0-1.84,0-2.76,0l1.31-190.08L298.42,511.85z"/>
	</g>
</g>
<g>
	<g>
		<path class="st0" d="M296.96,599.32c-19.28-40.09-70.47-33.83-70.47-33.83s23.23-41.62,68.3-32.94l2.17,0.64"/>
		<path class="st0" d="M296.96,599.32c19.28-40.09,70.47-33.83,70.47-33.83s-23.23-41.62-68.3-32.94l-2.17,0.64"/>
	</g>
</g>
<path class="st0" d="M267.67,649.82c-92.87-5.45-83.53-82.45-83.53-82.45s-2.63,20.5,65.58,21.16c0,0,34.31-0.15,39.89,29.81
	C295.2,648.29,267.67,649.82,267.67,649.82z"/>
<path class="st0" d="M327.6,649.82c92.87-5.45,83.53-82.45,83.53-82.45s2.63,20.5-65.58,21.16c0,0-34.31-0.15-39.89,29.81
	C300.08,648.29,327.6,649.82,327.6,649.82z"/>
<path class="st1" d="M466.66,245.75c-1.1,2.01-2.29,3.98-3.75,5.69c-1.76,2.05-3.88,3.69-6.05,5.18c-5.25,3.59-10.94,6.4-16.86,8.34
	c-12.85,4.21-26.48,4.24-39.89,4.49c-13.63,0.26-27.27,0.78-40.88,1.56c-6.11,0.35-12.38,0.8-17.96,3.55
	c-0.15-1.92,1.45-3.4,2.88-4.51c10.15-7.85,20.34-15.73,31.36-22.03s22.95-11.01,35.33-12.09c4.33-0.38,8.67-0.32,13.01-0.44
	c7.82-0.22,15.62-1.03,23.33-2.43c6.38-1.16,12.86-2.82,18.54-6.34c1.38-0.85,2.7-1.82,3.93-2.9c0.98-0.86,2.1-2.19,3.19-0.69
	c0.96,1.32,0.35,3.61,0.13,5.1c-0.29,1.9-0.72,3.76-1.25,5.59C470.51,238.02,468.73,241.99,466.66,245.75z"/>
</svg>
