<?xml version="1.0" encoding="utf-8"?>
<!-- Generator: Adobe Illustrator 25.2.1, SVG Export Plug-In . SVG Version: 6.00 Build 0)  -->
<svg version="1.1" id="Layer_1" xmlns="http://www.w3.org/2000/svg" xmlns:xlink="http://www.w3.org/1999/xlink" x="0px" y="0px"
	 viewBox="0 0 1920 1080" style="enable-background:new 0 0 1920 1080;" xml:space="preserve">
<style type="text/css">
	.st0{fill:url(#SVGID_1_);}
	.st1{fill:#FBB03B;stroke:#FBB03B;stroke-miterlimit:10;}
	.st2{fill:#C9C751;}
	.st3{fill:#754C24;}
	.st4{fill:#CCAF33;}
</style>
<g>
	<linearGradient id="SVGID_1_" gradientUnits="userSpaceOnUse" x1="0.5" y1="540" x2="1919.5" y2="540">
		<stop  offset="0" style="stop-color:#2D3E52"/>
		<stop  offset="0.1371" style="stop-color:#304758"/>
		<stop  offset="0.3566" style="stop-color:#385E68"/>
		<stop  offset="0.6309" style="stop-color:#458483"/>
		<stop  offset="0.9468" style="stop-color:#58B8A7"/>
		<stop  offset="1" style="stop-color:#5BC2AE"/>
	</linearGradient>
	<rect x="0.5" y="0.5" class="st0" width="1919" height="1079"/>
	<path d="M1919,1v1078H1V1H1919 M1920,0H0v1080h1920V0L1920,0z"/>
</g>
<path class="st1" d="M942.5,364.5"/>
<g>
	<path class="st2" d="M680.88,691.74l13.86-31.8l92.95-18.34c0,0,65.72,15.07,191.84-57.23c0,0,169.23-151.85,87.26-261.82
		l24.66-7.5l27.36-10.46c0,0,8.76,38.65,62.47,75c0,0,110.21,116.38-102.03,309.75C1079.24,689.34,812.9,883.95,680.88,691.74z"/>
	<polygon class="st3" points="1053.4,288.47 1067.45,322.13 1119.47,304.16 1100.05,273.47 1095.3,290.71 1075,283.96 
		1075.07,303.5 	"/>
	<polygon class="st3" points="676.22,684.38 694.74,659.94 680.88,691.74 	"/>
	<path class="st4" d="M692.9,672.62c0,0,453.25,102.42,418.4-331.28l-19.86-26.3l-23.99,7.08c0,0,87.06,94.76-87.93,262.25
		c0,0-120.98,70.95-191.84,57.23l-92.95,18.34l-5.43,12.45L692.9,672.62z"/>
</g>
</svg>
